<?xml version="1.0" encoding="utf-8"?>
<!-- Generator: Adobe Illustrator 16.0.4, SVG Export Plug-In . SVG Version: 6.00 Build 0)  -->
<!DOCTYPE svg PUBLIC "-//W3C//DTD SVG 1.1//EN" "http://www.w3.org/Graphics/SVG/1.1/DTD/svg11.dtd">
<svg version="1.1" id="Layer_1" xmlns="http://www.w3.org/2000/svg" xmlns:xlink="http://www.w3.org/1999/xlink" x="0px" y="0px"
	 width="138px" height="45px" viewBox="0 0 138 45" enable-background="new 0 0 138 45" xml:space="preserve">
<g>
	<path fill="#050A0D" d="M3.47,10.073C3.097,9.154,2.925,8.867,2.781,8.781C2.609,8.638,2.379,8.58,1.834,8.552V7.863
		C2.781,7.92,3.728,7.978,4.676,7.978c0.947,0,1.865-0.058,2.812-0.115v0.688c-0.374,0-0.747,0.028-1.12,0.086
		C5.795,8.724,5.623,8.867,5.623,9.211c0,0.373,0.402,1.722,1.865,5.223l1.578,3.96l1.321-3.329
		c1.349-3.214,1.722-4.907,1.722-5.653c0-0.373-0.172-0.717-0.833-0.775c-0.373-0.029-0.775-0.086-1.148-0.086V7.863
		c0.89,0.058,1.75,0.115,2.64,0.115c0.775,0,1.579-0.058,2.354-0.115v0.688c-1.034,0.145-1.148,0.201-1.722,1.521l-4.018,9.499
		c-0.144,0.345-0.258,0.603-0.345,1.033H7.889L3.47,10.073z"/>
	<path fill="#050A0D" d="M23.296,11.22c0-2.238-0.746-2.726-1.722-2.726c-1.148,0-2.668,0.603-2.668,2.411
		c0,1.578-1.12,1.836-1.608,1.836c-0.545,0-0.803-0.229-0.803-0.688c0-1.951,3.644-4.592,6.113-4.592
		c1.492,0,2.926,0.603,2.926,3.186c0,2.267-0.086,4.563-0.086,6.83c0,1.177,0.115,1.636,0.603,1.636
		c0.373,0,0.804-0.258,1.147-0.861l0.172,0.717c-0.344,0.804-1.32,1.635-2.066,1.635c-0.774,0-1.377-0.344-2.009-2.123
		c-1.951,1.665-3.271,2.123-4.361,2.123c-1.693,0-2.554-1.176-2.554-2.554c0-1.922,1.836-3.501,6.916-5.424V11.22z M23.296,13.401
		c-2.984,1.205-4.677,2.525-4.677,4.161c0,0.861,0.66,1.492,1.665,1.492c1.062,0,2.353-0.66,2.784-1.521
		c0.086-0.172,0.229-0.947,0.229-1.549L23.296,13.401L23.296,13.401z"/>
	<path fill="#050A0D" d="M28.889,19.399l1.206-0.114c0.775-0.086,0.832-0.459,0.832-1.378V10.79c0-0.89-0.287-1.176-1.636-1.406
		V8.695c1.435-0.086,2.268-0.661,2.87-1.779h0.661v2.698c1.377-1.292,2.726-2.153,3.615-2.153c1.321,0,1.75,1.579,1.75,2.009
		c0,0.516-0.229,0.975-0.947,0.975c-1.579,0-1.377-1.435-2.124-1.435c-0.23,0-1.091,0.545-2.124,1.464v7.547
		c0,0.889,0.115,1.176,1.378,1.263l1.406,0.114v0.804c-1.148-0.057-2.296-0.115-3.443-0.115c-1.148,0-2.296,0.058-3.444,0.115
		V19.399z"/>
	<path fill="#050A0D" d="M38.959,19.399l1.005-0.114c0.803-0.086,1.033-0.402,1.09-0.833c0.086-0.574,0.115-1.607,0.115-4.621
		c0-3.3-0.057-3.874-0.143-4.132c-0.23-0.66-1.005-0.747-1.636-0.747V8.265c2.065-0.172,2.84-0.402,3.558-1.75h0.602
		c-0.229,1.578-0.315,4.936-0.315,7.317c0,3.014,0,4.19,0.086,4.792c0.057,0.402,0.315,0.574,1.119,0.661l1.005,0.114v0.804
		c-1.12-0.057-2.182-0.115-3.271-0.115c-1.091,0-2.152,0.058-3.214,0.115L38.959,19.399L38.959,19.399z M42.546,0
		c0.689,0,1.177,0.517,1.177,1.262c0,0.919-0.833,1.751-1.75,1.751c-0.747,0-1.206-0.545-1.206-1.206
		C40.767,0.459,41.915,0,42.546,0z"/>
	<path fill="#050A0D" d="M54.109,11.22c0-2.238-0.746-2.726-1.722-2.726c-1.146,0-2.668,0.603-2.668,2.411
		c0,1.578-1.12,1.836-1.606,1.836c-0.545,0-0.803-0.229-0.803-0.688c0-1.951,3.644-4.592,6.112-4.592
		c1.492,0,2.927,0.603,2.927,3.186c0,2.267-0.086,4.563-0.086,6.83c0,1.177,0.115,1.636,0.604,1.636
		c0.373,0,0.804-0.258,1.147-0.861l0.172,0.717c-0.344,0.804-1.32,1.635-2.065,1.635c-0.775,0-1.378-0.344-2.01-2.123
		c-1.951,1.665-3.271,2.123-4.361,2.123c-1.694,0-2.555-1.176-2.555-2.554c0-1.922,1.837-3.501,6.916-5.424L54.109,11.22
		L54.109,11.22z M54.109,13.401c-2.984,1.205-4.677,2.525-4.677,4.161c0,0.861,0.66,1.492,1.665,1.492
		c1.062,0,2.353-0.66,2.783-1.521c0.086-0.172,0.229-0.947,0.229-1.549V13.401z"/>
	<path fill="#050A0D" d="M64.494,8.322c0.631-0.401,1.721-0.861,3.099-0.861c2.468,0,4.046,1.205,4.046,4.506
		c0,1.492-0.172,4.936-0.172,6.083c0,0.976,0.057,1.148,0.832,1.234l0.918,0.114v0.804c-0.746-0.057-1.664-0.115-2.783-0.115
		c-1.292,0-2.295,0.058-3.157,0.115v-0.804l1.435-0.172c0.689-0.086,0.861-0.316,0.861-4.764c0-0.775-0.029-2.181-0.143-3.3
		c-0.173-1.693-1.579-2.324-2.755-2.324c-1.349,0-2.41,0.631-3.472,1.377v7.691c0,0.918,0.057,1.292,0.832,1.378l1.206,0.114v0.804
		c-0.918-0.029-2.009-0.115-3.07-0.115c-1.292,0-2.209,0.086-3.1,0.115v-0.804l1.234-0.114c0.775-0.086,0.832-0.459,0.832-1.378
		V10.79c0-0.89-0.287-1.176-1.636-1.406V8.695c1.436-0.086,2.268-0.661,2.871-1.779h0.66v2.698h0.029L64.494,8.322z"/>
	<path fill="#050A0D" d="M74.621,8.437c1.979-0.718,2.582-1.808,3.3-3.501h0.746c-0.058,0.718-0.086,1.148-0.086,1.607
		c0,0.517,0.058,0.86,0.086,1.205h3.615v1.205h-3.644c-0.029,2.555-0.115,6.055-0.115,7.49c0,1.809,0.229,2.612,1.205,2.612
		c0.891,0,1.779-0.258,2.584-0.631l0.314,0.603c-1.922,1.263-3.271,1.578-4.104,1.578c-1.35,0-2.065-0.946-2.065-3.185
		c0-2.209,0.172-4.018,0.172-8.466h-2.008L74.621,8.437L74.621,8.437z"/>
	<path fill="#050A0D" d="M85.838,13.832c0-3.3-0.057-3.874-0.143-4.132c-0.23-0.66-1.006-0.747-1.637-0.747V8.265
		c2.065-0.172,2.84-0.402,3.559-1.75h0.602c-0.229,1.578-0.314,4.936-0.314,7.317l-0.055,11.45v10.157
		c0,1.062,0.174,1.205,1.178,1.351l0.66,0.086v0.604c-1.09,0.057-2.438,0.198-2.898,0.602L86.1,37.88
		c-0.057-0.459-0.172-1.062-0.314-1.437c-0.919,0.949-2.411,1.638-4.391,1.638c-4.994,0-5.826-4.019-5.826-5.797
		c0-3.816,2.755-6.83,6.887-6.83c0.746,0,2.382,0.146,3.33,0.519v-3.446L85.838,13.832z M87.216,0c0.689,0,1.177,0.517,1.177,1.262
		c0,0.919-0.832,1.751-1.75,1.751c-0.746,0-1.205-0.545-1.205-1.206C85.438,0.459,86.584,0,87.216,0z M82.312,26.145
		c-2.611,0-4.506,2.237-4.506,5.166c0,3.414,2.354,5.565,4.477,5.565c1.836,0,3.014-0.832,3.472-1.437
		c0.086-1.291,0.201-2.209,0.201-3.815C85.957,28.784,85.812,26.145,82.312,26.145z"/>
	<path fill="#050A0D" d="M0.487,16.96c1.263-0.229,2.755-0.775,3.559-1.263h0.775C4.62,20.748,4.62,25.167,4.62,31.48
		c0,3.015,0,4.189,0.086,4.791c0.057,0.402,0.316,0.574,1.119,0.66l1.005,0.115v0.805c-1.12-0.059-2.182-0.114-3.271-0.114
		c-1.091,0-2.152,0.057-3.558,0.114v-0.805l1.349-0.115c0.803-0.086,1.033-0.401,1.09-0.832c0.086-0.574,0.115-1.604,0.115-4.619
		v-6.717c0-5.222-0.057-6.227-0.373-6.714c-0.172-0.258-0.488-0.401-1.694-0.401L0.487,16.96L0.487,16.96z"/>
	<path fill="#050A0D" d="M19.483,35.812c-1.234,1.465-2.898,2.439-5.309,2.439c-3.415,0-5.939-2.754-5.939-6.656
		c0-3.33,2.467-6.486,6.141-6.486c3.099,0,5.051,2.238,5.051,4.533v0.519c-0.517-0.086-2.726-0.115-3.932-0.115h-2.411
		c-1.405,0-2.41,0.029-2.725,0.115c-0.029,0.198-0.058,0.43-0.058,0.832c0,3.186,2.325,5.711,5.051,5.711
		c1.435,0,2.354-0.402,3.529-1.465L19.483,35.812z M14.203,25.973c-2.009,0-3.759,1.95-3.759,3.069c0,0.201,0.143,0.313,0.574,0.313
		l3.1-0.172c2.668-0.172,2.898-0.287,2.898-0.86C17.016,26.917,15.81,25.973,14.203,25.973z"/>
	<path fill="#050A0D" d="M27.571,25.109c4.506,0,6.457,3.242,6.457,6.371c0,3.242-2.438,6.771-6.6,6.771
		c-4.162,0-6.457-3.529-6.457-6.629C20.972,27.923,23.898,25.109,27.571,25.109z M31.617,32.542
		c-0.085-3.646-1.463-6.428-4.333-6.569c-2.324,0-3.902,2.381-3.902,5.106c0,2.869,1.521,6.313,4.591,6.313
		C31.303,37.395,31.617,33.979,31.617,32.542z"/>
	<path fill="#050A0D" d="M35.461,43.304l1.291-0.112c0.632-0.06,0.804-0.316,0.833-1.265c0.028-1.204,0.057-3.387,0.057-4.707
		v-5.737c0-1.865-0.086-2.611-0.201-3.445c-0.143-1.061-0.373-1.291-1.464-1.348v-0.66c1.522-0.144,2.525-0.891,3.042-1.637h0.689
		v2.727c1.463-1.176,3.013-1.664,4.075-1.664c3.328,0,5.797,2.066,5.797,6.084c0,2.957-2.354,6.543-6.572,6.543
		c-1.149,0-2.612-0.43-3.3-1.033v4.074c0,1.953,0.086,1.98,1.291,2.125l1.407,0.172v0.688c-0.976-0.057-2.152-0.112-3.329-0.112
		c-1.148,0-2.296,0.057-3.615,0.112L35.461,43.304L35.461,43.304z M39.535,33.374c0,2.469,1.464,3.846,3.76,3.846
		c2.095,0,4.046-2.008,4.046-4.733c0-3.242-1.608-5.826-4.592-5.826c-1.521,0-2.955,0.803-3.07,1.551
		c-0.057,0.545-0.144,1.406-0.144,2.467V33.374z"/>
	<path fill="#050A0D" d="M59.073,28.87c0-2.238-0.746-2.728-1.721-2.728c-1.148,0-2.668,0.603-2.668,2.41
		c0,1.578-1.12,1.836-1.608,1.836c-0.545,0-0.803-0.229-0.803-0.688c0-1.953,3.644-4.592,6.112-4.592
		c1.492,0,2.927,0.602,2.927,3.186c0,2.266-0.086,4.562-0.086,6.83c0,1.176,0.115,1.635,0.603,1.635
		c0.373,0,0.804-0.258,1.148-0.861l0.172,0.72c-0.344,0.803-1.32,1.635-2.065,1.635c-0.775,0-1.378-0.344-2.01-2.123
		c-1.951,1.664-3.271,2.123-4.361,2.123c-1.694,0-2.555-1.176-2.555-2.555c0-1.923,1.837-3.5,6.916-5.425L59.073,28.87L59.073,28.87
		z M59.073,31.05c-2.984,1.205-4.677,2.525-4.677,4.162c0,0.859,0.66,1.492,1.665,1.492c1.062,0,2.353-0.66,2.784-1.521
		c0.085-0.173,0.229-0.947,0.229-1.552L59.073,31.05L59.073,31.05z"/>
	<path fill="#050A0D" d="M64.666,37.048l1.206-0.114c0.775-0.086,0.832-0.459,0.832-1.377v-7.117c0-0.892-0.287-1.177-1.636-1.406
		v-0.688c1.435-0.086,2.268-0.659,2.869-1.78h0.661v2.698c1.376-1.29,2.725-2.151,3.615-2.151c1.321,0,1.75,1.578,1.75,2.008
		c0,0.518-0.23,0.977-0.947,0.977c-1.578,0-1.377-1.436-2.123-1.436c-0.23,0-1.092,0.545-2.125,1.463v7.549
		c0,0.889,0.115,1.176,1.378,1.262l1.404,0.115v0.805c-1.146-0.059-2.295-0.114-3.443-0.114s-2.297,0.057-3.444,0.114v-0.806H64.666
		z"/>
	<path fill="#050A0D" d="M90.688,37.048l1.006-0.114c0.803-0.086,1.033-0.402,1.09-0.832c0.086-0.574,0.115-1.605,0.115-4.619
		c0-3.301-0.058-3.875-0.144-4.133c-0.229-0.66-1.005-0.746-1.636-0.746v-0.689c2.064-0.172,2.84-0.402,3.558-1.75h0.603
		c-0.229,1.578-0.315,4.936-0.315,7.318c0,3.014,0,4.188,0.086,4.791c0.058,0.401,0.316,0.574,1.119,0.66l1.005,0.114v0.806
		c-1.12-0.06-2.182-0.115-3.271-0.115s-2.151,0.057-3.213,0.115v-0.806H90.688z M94.275,17.649c0.688,0,1.177,0.516,1.177,1.263
		c0,0.918-0.833,1.75-1.75,1.75c-0.747,0-1.206-0.545-1.206-1.205C92.495,18.108,93.643,17.649,94.275,17.649z"/>
	<path fill="#050A0D" d="M105.837,28.87c0-2.238-0.746-2.728-1.722-2.728c-1.147,0-2.668,0.603-2.668,2.41
		c0,1.578-1.12,1.836-1.607,1.836c-0.545,0-0.803-0.229-0.803-0.688c0-1.953,3.645-4.592,6.111-4.592
		c1.492,0,2.928,0.602,2.928,3.186c0,2.266-0.086,4.562-0.086,6.83c0,1.176,0.115,1.635,0.603,1.635
		c0.373,0,0.804-0.258,1.148-0.861l0.172,0.72c-0.345,0.803-1.32,1.635-2.065,1.635c-0.774,0-1.378-0.344-2.01-2.123
		c-1.951,1.664-3.271,2.123-4.361,2.123c-1.693,0-2.555-1.176-2.555-2.555c0-1.923,1.836-3.5,6.916-5.425L105.837,28.87
		L105.837,28.87z M105.837,31.05c-2.983,1.205-4.677,2.525-4.677,4.162c0,0.859,0.66,1.492,1.665,1.492
		c1.062,0,2.353-0.66,2.782-1.521c0.086-0.173,0.229-0.947,0.229-1.552V31.05z"/>
	<path fill="#050A0D" d="M116.223,25.973c0.631-0.402,1.723-0.861,3.101-0.861c2.467,0,4.046,1.205,4.046,4.506
		c0,1.492-0.172,4.936-0.172,6.082c0,0.977,0.057,1.148,0.832,1.234l0.918,0.114v0.806c-0.746-0.06-1.664-0.115-2.784-0.115
		c-1.291,0-2.295,0.057-3.156,0.115v-0.806l1.435-0.172c0.689-0.086,0.861-0.315,0.861-4.764c0-0.775-0.029-2.183-0.143-3.302
		c-0.173-1.692-1.579-2.323-2.755-2.323c-1.349,0-2.41,0.631-3.472,1.377v7.69c0,0.918,0.058,1.291,0.832,1.377l1.205,0.115v0.805
		c-0.918-0.028-2.009-0.114-3.07-0.114c-1.291,0-2.209,0.086-3.1,0.114v-0.805l1.234-0.115c0.775-0.086,0.832-0.459,0.832-1.377
		v-7.117c0-0.891-0.287-1.176-1.637-1.405v-0.688c1.437-0.086,2.269-0.66,2.871-1.781h0.659v2.699h0.029L116.223,25.973z"/>
	<path fill="#050A0D" d="M138,35.812c-1.234,1.465-2.898,2.439-5.309,2.439c-3.416,0-5.939-2.754-5.939-6.656
		c0-3.33,2.467-6.486,6.141-6.486c3.1,0,5.051,2.238,5.051,4.533v0.519c-0.517-0.086-2.726-0.115-3.932-0.115H131.6
		c-1.406,0-2.41,0.029-2.725,0.115c-0.029,0.198-0.059,0.43-0.059,0.832c0,3.186,2.326,5.711,5.052,5.711
		c1.435,0,2.354-0.402,3.528-1.465L138,35.812z M132.72,25.973c-2.009,0-3.759,1.95-3.759,3.069c0,0.201,0.143,0.313,0.574,0.313
		l3.1-0.172c2.668-0.172,2.898-0.287,2.898-0.86C135.532,26.917,134.327,25.973,132.72,25.973z"/>
</g>
</svg>
